<svg id="Capa_1" enable-background="new 0 0 512 512" height="512" viewBox="0 0 512 512" width="512" xmlns="http://www.w3.org/2000/svg"><g><path d="m440.802 388.898c-23.952 10.896-49.272 16.421-75.256 16.421-100.455 0-182.182-81.727-182.182-182.182 0-90.284 64.772-165.888 154.015-179.769 6.804-1.059 12.013-6.613 12.633-13.472.62-6.857-3.509-13.257-10.012-15.519-27.438-9.539-55.699-14.377-84-14.377-68.38 0-132.667 26.629-181.02 74.98-48.352 48.353-74.98 112.64-74.98 181.02s26.628 132.667 74.98 181.02c48.353 48.351 112.64 74.98 181.02 74.98 40.425 0 79.105-9.198 114.967-27.34 34.107-17.254 64.516-42.486 87.94-72.97 4.196-5.461 4.135-13.077-.148-18.47-4.284-5.392-11.686-7.173-17.957-4.322z"/><path d="m511.266 170.3c-1.764-5.431-6.458-9.389-12.109-10.209l-53.952-7.84-24.128-48.89c-2.527-5.12-7.742-8.361-13.452-8.361s-10.924 3.241-13.451 8.361l-24.128 48.89-53.952 7.84c-5.65.82-10.345 4.778-12.109 10.209-1.765 5.43-.293 11.391 3.795 15.376l39.04 38.055-9.216 53.733c-.965 5.628 1.348 11.315 5.967 14.671s10.744 3.798 15.797 1.143l48.256-25.37 48.256 25.37c2.195 1.153 4.591 1.723 6.979 1.723 3.11 0 6.205-.966 8.818-2.865 4.619-3.355 6.933-9.043 5.967-14.67l-9.216-53.734 39.04-38.055c4.091-3.986 5.562-9.947 3.798-15.377z"/></g></svg>