<svg xmlns="http://www.w3.org/2000/svg" xmlns:xlink="http://www.w3.org/1999/xlink" version="1.1" viewBox="-30 -210 2570 2248"><g><path fill="currentColor" d="M1414 1836q-65 0 -71 -56l141 -4q0 10 -5.5 20.5t-15 19.5t-22.5 14.5t-27 5.5zM1264 1621q23 -1 38.5 -19t15.5 -41q0 -26 -17.5 -44t-39.5 -18q-25 0 -41.5 18.5t-16.5 43.5q0 28 18.5 44.5t42.5 15.5zM2071 -219l24 1h25q31 408 55.5 850t40.5 919l-48 10 q-20 -513 -44 -958.5t-53 -821.5zM1953 -218l59 -1q5 65 13.5 193.5t22.5 320.5q13 193 28.5 510.5t32.5 764.5l-9 3h-11q-24 0 -29.5 -14t-6.5 -43l-10 -270q-14 -386 -33.5 -752t-56.5 -712zM2333 1483q2 23 -5 30q-7 9 -53 25q-55 -1319 -96 -1753q43 3 50 7q8 2 10 19 l37 541q18 263 32 544t25 587zM848 449l-2 -4l-73 -159q-3 -8 -11 -8l-285 37q-12 0 -12 11l3 5l72 159q5 7 10 7h2l56 -7l217 469l-70 3q-13 0 -13 12l2 4l76 167q4 8 11 8l256 8h2q4 0 8 -3.5t4 -8.5l-1 -5l-312 -676l49 -7q11 0 11 -12zM1930 766l-100 -339l-44 -141 l-115 -283q-23 -58 -55 -82.5t-86 -24.5h-12l-14 1q-128 13 -211 17.5t-124 10.5l-598 85v-25q0 -28 -1 -49.5t-4 -38.5q36 -5 114.5 -14.5t200.5 -23.5t258 -26t290 -26t255 -20t154 -6q20 135 34 244.5t25 194.5q7 55 12.5 133.5t10.5 181.5t7.5 160t2.5 71zM1961 1531 q0 18 -2 35t-9.5 30.5t-21 22.5t-35.5 13q-30 5 -59 5.5t-57 4.5q-14 2 -45 5t-81 7l-439 33q-171 13 -301 21t-221 10q-41 1 -54 -23t-13 -109q0 -58 6 -68q6 -9 20 -17q15 -8 43 -13q14 -2 125.5 -11t324.5 -24q214 -16 391 -30.5t323 -14.5h12l11 1q24 3 38.5 5t20.5 5 q7 4 11.5 10t7 18t3.5 32t1 52zM887 272l2 6l82 179l7 5l38 15q95 38 173 81.5t143 91.5q130 96 130 172q0 69 -70 69q-73 0 -204 -74l-6 -3q-13 0 -13 12l-13 145v3q0 7 5 8l36 23q32 21 71.5 39t85.5 35q94 35 164 35q87 0 151 -59q31 -29 47 -64.5t16 -79.5 q0 -79 -59 -170q-59 -88 -143 -142q-85 -54 -165.5 -97t-156.5 -75l301 -38q11 0 11 -13l-2 -4l-78 -171q-2 -7 -12 -7l-530 67q-11 0 -11 11zM1420 16q28 0 48 3.5t35 13t27 27t25 45.5q78 171 132.5 301t83.5 223q30 94 52 183t39 177l43 231l3 25q0 36 -34 42 q-32 5 -130.5 12.5t-266.5 16.5q-166 9 -348.5 23t-386.5 28q-27 2 -43.5 -15.5t-23.5 -49.5q-13 -68 -41.5 -168.5t-74.5 -237.5q-36 -108 -128 -284q-46 -88 -89 -162.5t-84 -138.5l-20 -33q-8 -14 -13 -22.5t-5 -16.5q0 -15 24.5 -25.5t86.5 -23.5l50 -11 q146 -31 357.5 -68t495.5 -73q44 -5 92.5 -13.5t93.5 -8.5zM2442 1483q0 -69 -4.5 -246.5t-19.5 -462.5l-22 -432l-31 -538q-3 -46 -11.5 -73.5t-28.5 -35.5q-25 -10 -168 -18q-71 -4 -149 -9.5t-166 -5.5h-23q-214 0 -495.5 31t-631.5 74q-72 9 -119.5 17t-76.5 16.5 t-44 17t-21 18.5t-6.5 22t-2.5 26v31l4 119l2 18l-51 12q-78 19 -138 35.5t-100 32.5t-60.5 33t-20.5 37q0 14 13 35q94 142 150.5 232t79.5 129q22 39 43.5 80t42.5 85q21 45 55 128.5t80 209.5q7 17 12.5 34t10.5 35q5 17 20.5 72.5t38.5 151.5q-70 18 -82 56 q-12 39 -12 81q0 11 2 55t7 121q2 27 8.5 46t19.5 31.5t35 18.5t55 6q78 0 190 -5.5t264 -11.5l145 -5q33 142 182 142q73 0 123 -43t62 -114l397 -40q41 -5 80.5 -11.5t79.5 -17.5l157 -42q39 -11 63 -27.5t38 -39t19 -50.5t5 -61z" transform="matrix(1 0 0 -1 0 1638)"/></g></svg>