<?xml version="1.0" standalone="no"?>
<!DOCTYPE svg PUBLIC "-//W3C//DTD SVG 20010904//EN"
 "http://www.w3.org/TR/2001/REC-SVG-20010904/DTD/svg10.dtd">
<svg version="1.0" xmlns="http://www.w3.org/2000/svg"
 width="1121.000000pt" height="1280.000000pt" viewBox="0 0 1121.000000 1280.000000"
 preserveAspectRatio="xMidYMid meet">
<metadata>
Created by potrace 1.15, written by Peter Selinger 2001-2017
</metadata>
<g transform="translate(0.000000,1280.000000) scale(0.100000,-0.100000)"
fill="#000000" stroke="none">
<path d="M537 11527 l-137 -1242 -30 -42 c-17 -23 -30 -43 -30 -46 0 -2 14
-10 30 -17 l30 -13 -2 -201 -3 -200 -117 -20 -118 -20 0 -72 0 -73 120 -199
120 -200 0 -930 c0 -878 -1 -931 -17 -935 -10 -3 -82 -15 -161 -28 l-142 -23
0 -88 0 -89 110 -188 110 -188 0 -950 0 -950 -107 -7 c-60 -4 -127 -9 -150
-12 l-43 -6 0 -79 0 -79 120 -240 120 -240 0 -2075 0 -2075 5365 0 5365 0 0
2075 0 2075 120 240 120 240 0 79 0 79 -42 6 c-24 3 -91 8 -150 12 l-108 7 0
950 0 950 110 188 110 188 0 89 0 88 -142 23 c-79 13 -151 25 -160 28 -17 4
-18 57 -18 935 l0 930 120 200 120 199 0 73 0 72 -117 20 -118 20 -3 200 -2
201 30 13 c16 7 30 15 30 17 0 3 -13 23 -30 46 l-30 42 -139 1245 c-76 685
-140 1243 -141 1240 -1 -3 -64 -562 -140 -1243 l-138 -1239 -31 -43 c-17 -24
-31 -45 -31 -48 0 -3 14 -10 30 -16 l30 -10 -2 -203 -3 -202 -115 -21 -115
-20 -3 -69 -3 -69 121 -201 120 -202 0 -931 c0 -879 -1 -932 -18 -937 -9 -3
-81 -15 -159 -27 l-143 -23 0 -86 0 -86 115 -198 115 -198 -2 -942 -3 -941
-135 -12 c-74 -6 -143 -12 -152 -12 -16 -1 -18 -12 -18 -80 l0 -80 120 -237
120 -237 0 -1648 0 -1649 -280 0 -280 0 0 1052 0 1053 122 122 123 123 -218 0
-217 0 0 285 0 285 110 221 111 221 -3 66 -3 67 -135 10 -135 10 -3 861 -2
862 100 170 100 171 0 84 0 83 -137 23 c-76 13 -141 25 -145 28 -5 2 -8 382
-8 845 l0 840 110 183 110 183 0 65 0 66 -52 10 c-29 6 -71 13 -93 17 -82 12
-75 -5 -75 194 l0 179 30 16 31 16 -30 42 -30 42 -120 1095 c-67 602 -124
1111 -127 1130 -5 22 -53 -375 -133 -1097 -112 -1007 -129 -1135 -147 -1160
-36 -50 -36 -52 -10 -65 l26 -11 0 -183 c0 -209 14 -183 -105 -204 -115 -21
-105 -12 -105 -88 l0 -67 105 -175 105 -175 0 -851 0 -851 -142 -24 -143 -24
-3 -76 -3 -76 106 -181 105 -181 -2 -268 -3 -268 -87 -3 -88 -3 0 188 c0 337
-24 485 -107 653 -40 81 -61 109 -142 191 -80 79 -111 102 -185 139 -50 24
-104 44 -121 44 -42 0 -166 -60 -241 -118 -169 -127 -279 -347 -304 -604 -5
-59 -10 -194 -10 -299 l0 -193 -125 0 -126 0 2 463 c2 810 -41 1141 -196 1527
-222 551 -610 937 -1158 1151 -56 21 -111 39 -124 39 -13 0 -68 -16 -121 -36
-540 -202 -946 -603 -1167 -1154 -152 -378 -194 -709 -195 -1517 l0 -473 -125
0 -125 0 0 199 c0 109 -5 244 -10 300 -26 254 -136 471 -302 596 -77 59 -201
119 -243 119 -56 0 -198 -80 -281 -157 -211 -197 -274 -399 -274 -879 l0 -178
-125 0 -125 0 0 551 0 551 105 179 105 180 0 84 c0 71 -3 84 -17 89 -20 6
-259 46 -274 46 -5 0 -9 356 -9 895 l0 895 115 190 116 190 -3 63 -3 62 -55
12 c-30 7 -81 17 -112 23 l-58 11 0 195 0 194 25 6 c32 8 31 14 -4 66 l-28 43
-127 1165 c-70 641 -130 1172 -133 1180 -3 8 -65 -519 -138 -1172 l-132 -1186
-32 -41 -33 -41 31 -11 31 -11 0 -193 0 -194 -52 -10 c-29 -6 -81 -15 -115
-22 l-63 -12 0 -64 c0 -65 0 -65 115 -257 l115 -191 0 -891 0 -891 -147 -24
-148 -24 -3 -87 -3 -88 106 -179 105 -180 0 -904 0 -904 -82 -7 c-46 -3 -111
-9 -145 -12 l-63 -6 0 -74 0 -74 115 -230 115 -230 0 -500 -1 -500 -162 0
-162 0 123 -123 122 -122 0 -188 0 -187 -255 0 -255 0 0 784 0 784 120 237
120 237 0 79 c0 68 -2 79 -17 80 -10 0 -79 6 -153 12 l-135 12 -3 941 -2 942
115 198 115 198 0 86 0 86 -142 23 c-79 12 -151 24 -160 27 -17 5 -18 58 -18
937 l0 931 120 202 121 201 -3 69 -3 69 -115 20 -115 21 -3 202 -2 203 30 10
c16 6 30 13 30 16 0 3 -14 24 -31 48 l-31 43 -137 1236 c-76 680 -140 1238
-142 1240 -2 2 -66 -554 -142 -1237z"/>
</g>
</svg>
