<?xml version="1.0" standalone="no"?>
<!DOCTYPE svg PUBLIC "-//W3C//DTD SVG 20010904//EN"
 "http://www.w3.org/TR/2001/REC-SVG-20010904/DTD/svg10.dtd">
<svg version="1.0" xmlns="http://www.w3.org/2000/svg"
 width="1280.000000pt" height="1186.000000pt" viewBox="0 0 1280.000000 1186.000000"
 preserveAspectRatio="xMidYMid meet">
<g transform="translate(0.000000,1186.000000) scale(0.100000,-0.100000)"
fill="#000000" stroke="none">
<path d="M6786 11844 c-65 -18 -122 -67 -233 -204 -195 -239 -195 -240 -439
-280 -104 -17 -195 -37 -202 -43 -45 -37 -282 -439 -282 -478 0 -8 24 -39 54
-68 68 -67 92 -68 230 -11 212 88 377 183 504 289 76 64 130 81 252 81 151 0
285 -49 468 -170 64 -43 166 -119 225 -169 l108 -92 59 7 c134 15 293 -59 431
-203 71 -73 97 -119 253 -433 85 -173 145 -281 186 -335 33 -44 63 -79 66 -78
3 2 7 74 9 160 18 651 296 1286 731 1665 57 50 105 96 105 102 5 47 -34 87
-136 137 -297 146 -676 107 -980 -100 -69 -47 -92 -50 -240 -27 -124 19 -182
35 -475 131 -141 46 -294 91 -340 100 -47 8 -101 20 -121 25 -50 14 -174 10
-233 -6z"/>
<path d="M9660 11711 c-61 -20 -108 -53 -145 -102 -22 -30 -134 -150 -248
-268 -114 -117 -237 -252 -272 -299 -107 -142 -240 -408 -308 -617 -89 -270
-100 -547 -30 -769 23 -73 97 -236 107 -236 2 0 38 -6 78 -14 178 -34 297
-110 493 -315 233 -243 358 -364 418 -406 l58 -39 187 47 c285 72 406 87 552
68 278 -36 444 -175 770 -646 283 -410 389 -524 631 -675 153 -96 322 -297
414 -493 90 -190 124 -335 132 -551 10 -284 -19 -345 -251 -518 -67 -50 -137
-104 -156 -120 -19 -16 -83 -60 -141 -98 -188 -122 -269 -234 -277 -384 -3
-66 -1 -84 12 -95 22 -18 148 -16 225 4 87 22 425 168 490 212 158 104 296
294 349 480 62 215 62 233 18 718 -14 160 -26 346 -26 415 l0 125 -48 110
c-135 307 -292 519 -644 868 -211 210 -244 247 -269 302 -56 125 -89 280 -109
515 -25 304 -51 484 -85 579 -25 73 -132 248 -352 575 -238 356 -303 461 -379
621 -138 286 -181 537 -138 797 9 54 14 101 11 105 -18 17 -265 64 -466 89
-142 17 -563 28 -601 15z"/>
<path d="M3085 11464 c-378 -27 -738 -109 -1011 -229 l-51 -23 -7 -182 c-4
-100 -5 -185 -2 -187 13 -13 142 -36 366 -63 261 -33 332 -46 426 -81 60 -22
79 -33 147 -77 71 -47 43 -53 -107 -22 -235 48 -384 64 -596 64 -264 -1 -336
-14 -433 -80 -71 -49 -101 -83 -112 -127 -11 -42 13 -67 116 -126 146 -83 272
-181 255 -198 -3 -4 -46 1 -94 10 -242 45 -328 46 -382 1 -34 -29 -98 -151
-84 -163 5 -4 54 -25 109 -46 210 -80 357 -166 458 -266 64 -64 75 -96 30 -84
-245 62 -483 81 -633 51 -98 -20 -219 -65 -272 -101 -47 -32 -54 -72 -37 -208
12 -99 11 -104 -11 -162 -21 -51 -24 -78 -25 -180 0 -138 12 -187 96 -382 89
-207 119 -299 140 -437 34 -224 47 -345 59 -531 17 -283 40 -575 47 -593 4 -9
30 -53 59 -97 181 -279 344 -696 459 -1172 28 -117 152 -317 336 -540 68 -82
99 -110 194 -175 255 -170 564 -301 933 -392 213 -53 434 -93 832 -151 135
-20 257 -38 271 -41 23 -4 31 2 67 58 97 149 135 270 136 428 0 172 -23 231
-227 570 -257 427 -325 609 -314 839 6 137 30 212 117 371 77 140 116 233 155
365 46 160 56 239 62 480 6 255 -1 353 -68 885 -25 199 -51 300 -140 546 -107
295 -149 456 -149 570 0 24 -4 44 -8 44 -14 0 -344 -135 -403 -165 -162 -82
-283 -193 -338 -308 -48 -99 -72 -261 -72 -482 0 -311 39 -533 191 -1095 231
-853 257 -1078 148 -1282 -32 -60 -58 -75 -58 -35 0 55 -30 363 -45 462 -61
416 -214 928 -440 1475 -66 159 -67 163 -122 485 -25 144 -24 425 1 520 47
178 128 298 300 443 192 161 412 278 671 359 87 26 98 28 305 28 189 0 221 2
268 20 30 11 57 26 62 35 4 8 18 51 30 95 30 106 95 256 120 277 59 48 342
130 509 146 57 6 106 13 109 16 6 7 -72 92 -158 171 -190 175 -423 307 -894
509 -269 116 -277 118 -489 142 -133 15 -678 27 -802 18z"/>
<path d="M6450 10854 c-215 -123 -291 -155 -615 -259 -660 -211 -746 -245
-868 -346 -76 -64 -87 -77 -82 -98 7 -27 41 -98 138 -286 69 -136 100 -212
112 -283 10 -60 -8 -55 -105 28 -152 131 -230 170 -338 170 -53 0 -61 -3 -88
-32 -83 -89 -140 -185 -180 -303 -25 -73 -27 -93 -28 -235 -1 -219 22 -313
178 -750 43 -118 93 -276 112 -350 33 -126 36 -151 46 -380 8 -188 8 -274 -2
-370 -27 -273 -108 -578 -251 -950 -29 -76 -33 -96 -33 -185 1 -158 36 -233
215 -461 175 -223 209 -302 229 -529 18 -202 0 -326 -95 -650 -103 -355 -125
-465 -125 -624 0 -58 7 -137 15 -174 30 -145 128 -292 261 -397 38 -30 90 -75
117 -101 53 -52 144 -100 227 -120 73 -18 248 -15 433 6 202 23 219 15 112
-55 -80 -52 -198 -103 -392 -171 -208 -72 -198 -61 -112 -125 87 -63 239 -140
361 -183 48 -16 178 -55 290 -86 414 -114 461 -133 903 -368 152 -81 180 -93
183 -78 2 10 -18 144 -43 297 -92 560 -125 847 -125 1107 0 318 -93 559 -379
982 -74 110 -161 239 -193 286 -73 109 -146 177 -289 266 -104 64 -128 75
-274 116 -88 25 -207 57 -265 72 -58 15 -109 31 -115 36 -14 14 129 149 227
213 46 30 127 76 178 101 52 25 97 51 101 58 4 6 8 53 10 102 l4 90 -125 43
c-165 57 -368 115 -510 147 -109 25 -141 37 -128 50 12 12 148 54 242 74 112
25 331 51 426 51 36 0 82 3 102 6 36 6 37 8 52 73 84 357 50 686 -139 1356
-88 313 -85 438 21 800 25 88 64 223 85 299 l39 140 -10 105 c-35 364 -37 633
-6 772 30 131 79 239 155 342 48 64 318 246 496 333 160 78 276 112 420 124
129 10 195 31 230 72 30 35 32 55 6 63 -10 3 -81 46 -156 96 -163 107 -231
142 -312 163 -122 32 -137 28 -343 -90z"/>
<path d="M7315 10485 c-33 -7 -80 -21 -105 -30 -28 -11 -98 -20 -183 -26 -210
-13 -326 -50 -486 -156 -103 -69 -273 -236 -354 -351 -66 -92 -81 -136 -99
-293 -12 -107 -9 -156 33 -559 6 -58 9 -163 6 -235 -6 -151 -28 -240 -87 -355
-45 -89 -56 -124 -65 -206 -9 -94 12 -230 67 -429 71 -258 126 -519 149 -700
18 -143 16 -615 -5 -865 -9 -113 -21 -281 -26 -375 -5 -93 -12 -196 -15 -229
-4 -37 -3 -57 4 -55 12 5 350 517 441 669 208 347 313 628 342 915 10 104 9
140 -6 259 -35 288 -31 501 15 775 29 172 12 242 -124 503 -114 218 -132 305
-81 406 64 129 324 283 581 346 246 59 399 56 685 -14 193 -47 294 -93 386
-175 69 -63 70 -63 47 53 -67 334 -284 708 -590 1019 -92 93 -104 102 -153
112 -72 15 -303 12 -377 -4z"/>
<path d="M8568 9165 c-47 -8 -120 -27 -160 -43 -81 -31 -208 -109 -208 -128 0
-6 42 -47 93 -92 153 -132 308 -308 507 -577 l127 -170 164 -85 c283 -147 376
-219 428 -330 16 -33 32 -85 36 -115 5 -47 3 -63 -18 -109 -66 -144 -227 -320
-379 -414 -152 -94 -340 -159 -526 -182 -183 -22 -518 -191 -812 -409 -70 -52
-109 -87 -99 -89 8 -1 71 8 140 22 230 47 320 57 549 62 219 5 271 0 245 -25
-6 -5 -152 -55 -325 -111 -314 -101 -315 -102 -425 -175 -187 -124 -315 -225
-439 -345 -110 -107 -246 -263 -246 -283 0 -4 219 102 488 237 l487 245 151
31 c596 120 1140 353 1557 666 168 127 170 129 190 245 16 94 28 134 136 479
87 278 113 457 75 516 -24 35 -83 68 -204 109 -231 80 -351 182 -543 458 -189
274 -232 330 -304 407 -110 117 -233 175 -431 205 -114 17 -139 17 -254 0z"/>
<path d="M7690 8974 c-63 -11 -150 -37 -158 -48 -16 -20 -183 -424 -218 -529
-82 -241 -107 -393 -102 -607 1 -80 -1 -181 -5 -225 l-8 -80 124 128 c69 70
130 127 137 127 26 0 -9 -265 -56 -427 -21 -74 -38 -121 -91 -250 -4 -10 9
-13 48 -13 74 0 165 21 328 74 262 86 348 95 499 51 138 -40 247 -55 390 -55
291 0 551 94 741 267 91 83 104 117 99 251 -3 88 -6 104 -29 136 -37 52 -83
83 -160 108 l-68 22 -81 -22 c-45 -12 -157 -49 -249 -81 -227 -80 -326 -104
-438 -104 l-91 -1 -79 74 c-160 151 -266 212 -401 232 -42 6 -83 16 -90 21
-18 14 -43 64 -54 107 -14 57 -28 524 -17 564 13 46 49 74 107 81 87 11 397
67 410 75 16 8 -145 74 -248 101 -73 19 -196 31 -240 23z"/>
<path d="M835 8612 c-333 -200 -641 -433 -777 -588 -32 -36 -58 -105 -58 -156
0 -77 49 -228 135 -411 47 -101 85 -195 85 -209 0 -15 -14 -84 -31 -154 -26
-109 -31 -142 -27 -219 5 -104 23 -147 87 -209 l40 -39 148 6 c81 4 204 15
273 27 69 11 154 20 189 20 57 0 62 -2 50 -16 -7 -9 -108 -63 -224 -121 -237
-118 -348 -187 -446 -280 -101 -96 -101 -97 -110 -378 -6 -189 -11 -257 -27
-320 -11 -44 -35 -162 -52 -263 l-32 -183 28 -56 c46 -95 167 -210 487 -466
78 -62 195 -124 296 -156 145 -47 275 -64 606 -81 215 -10 359 -28 466 -55 95
-25 170 -56 167 -68 -7 -22 -91 -54 -298 -116 -112 -34 -206 -64 -209 -66 -6
-7 15 -11 109 -25 93 -14 318 -64 326 -73 13 -13 -11 -28 -84 -51 -129 -41
-221 -57 -359 -63 -78 -3 -133 -10 -133 -16 0 -22 115 -238 175 -327 173 -258
413 -457 670 -556 60 -23 85 -27 180 -27 213 -1 329 58 438 223 57 87 175 326
272 550 84 197 189 399 251 487 27 37 79 99 117 137 37 38 66 70 65 71 -2 2
-64 23 -138 48 -266 88 -450 184 -935 486 -165 103 -317 198 -338 210 -48 29
-106 115 -172 255 -61 129 -92 222 -174 516 -107 386 -146 483 -226 560 -140
135 -231 317 -269 535 -21 118 -21 362 0 500 12 86 13 123 5 195 -31 253 -148
566 -321 860 -94 159 -73 153 -225 62z"/>
<path d="M10335 8559 c-27 -5 -79 -19 -115 -30 -73 -24 -320 -139 -320 -149 0
-4 78 -35 173 -69 259 -94 352 -153 403 -256 40 -83 33 -146 -38 -310 -76
-177 -78 -186 -78 -284 0 -288 -104 -610 -310 -963 l-51 -86 -144 -81 c-209
-118 -267 -139 -448 -161 -202 -26 -250 -34 -392 -69 -188 -46 -404 -125 -563
-205 -78 -39 -80 -38 115 -61 159 -19 253 -19 413 -1 459 52 899 229 1265 510
80 61 333 188 450 226 100 31 121 35 129 22 2 -4 -45 -61 -106 -127 -251 -273
-357 -442 -397 -634 -74 -344 -221 -565 -431 -646 -179 -69 -360 -96 -632 -96
-224 0 -282 9 -648 97 -501 122 -573 134 -787 134 -286 0 -485 -59 -823 -245
-85 -47 -203 -110 -261 -140 -59 -30 -109 -61 -113 -70 -20 -53 2 -120 71
-216 l35 -49 112 0 c65 0 194 11 302 25 324 44 365 47 509 42 175 -7 240 -24
423 -116 281 -140 402 -175 590 -170 93 3 123 8 143 22 142 104 234 148 379
185 110 28 317 52 450 52 58 0 169 5 246 10 140 9 143 10 211 50 39 22 150
100 248 174 195 147 294 209 400 251 60 24 90 29 215 36 119 5 160 12 229 35
168 56 327 175 522 392 89 98 144 148 273 244 268 202 331 285 367 486 10 59
19 134 19 167 0 179 -88 378 -312 708 -92 134 -159 194 -418 369 -152 104
-218 156 -301 238 -96 96 -111 115 -160 215 -62 124 -197 311 -285 396 -124
117 -195 146 -382 153 -70 3 -149 1 -177 -5z"/>
<path d="M7990 8525 c0 -45 21 -85 72 -141 41 -45 45 -74 10 -74 -42 0 -127
-34 -155 -61 -25 -25 -29 -36 -24 -64 15 -90 113 -150 272 -164 55 -5 138 -6
185 -3 81 7 85 8 98 36 38 79 22 202 -40 305 -32 52 -38 57 -143 104 -113 51
-238 97 -262 97 -8 0 -13 -13 -13 -35z"/>
<path d="M7895 7008 c-214 -40 -444 -160 -674 -351 -90 -76 -294 -286 -399
-412 -231 -277 -582 -771 -566 -797 3 -4 47 -8 98 -8 178 0 291 55 536 259
160 134 256 232 485 491 363 411 463 498 813 704 73 44 129 82 125 87 -4 4
-47 14 -94 23 -93 17 -244 19 -324 4z"/>
<path d="M11016 5049 c-101 -14 -222 -47 -279 -76 -73 -37 -155 -119 -273
-274 -116 -153 -159 -196 -236 -236 -74 -38 -184 -38 -318 2 -211 61 -501 24
-694 -89 l-43 -25 58 -173 c119 -356 153 -663 105 -959 -27 -167 -49 -207 -70
-128 -5 19 -38 121 -73 228 -67 204 -160 414 -233 522 -67 99 -176 203 -246
234 -65 30 -177 45 -188 26 -4 -6 11 -66 33 -133 89 -276 125 -482 125 -718 0
-174 -22 -325 -47 -317 -7 2 -20 44 -29 93 -97 495 -236 826 -439 1047 -72 79
-264 232 -353 282 -243 136 -576 166 -895 81 -29 -8 -55 -17 -58 -20 -2 -2 18
-42 46 -88 90 -150 145 -304 178 -505 15 -89 18 -172 19 -483 l1 -375 41 -115
c45 -126 77 -268 92 -411 12 -119 12 -494 0 -663 l-10 -130 45 -140 c80 -253
90 -332 35 -274 -12 12 -113 145 -225 293 -229 306 -339 434 -457 533 -182
151 -232 177 -558 282 -507 163 -701 258 -873 427 -92 91 -397 546 -484 723
-87 179 -133 335 -133 455 0 51 -2 55 -45 93 -61 53 -150 99 -237 121 -82 21
-283 41 -414 41 -110 0 -144 -17 -250 -129 -68 -70 -88 -98 -110 -156 -44
-113 -144 -305 -284 -540 -219 -368 -307 -556 -355 -758 -13 -56 -34 -133 -45
-172 -68 -233 -41 -333 105 -401 98 -45 165 -103 273 -231 124 -149 199 -218
277 -254 94 -45 155 -47 310 -14 180 38 244 27 283 -48 27 -51 96 -111 167
-146 92 -45 216 -67 450 -80 168 -9 219 -16 318 -41 171 -44 303 -94 547 -205
476 -216 529 -233 935 -290 724 -101 1152 -223 1529 -432 116 -64 124 -67 297
-103 120 -25 194 -36 226 -33 65 7 205 -20 333 -64 100 -34 368 -95 381 -87
16 10 31 161 26 266 -11 258 -101 450 -424 909 -257 366 -384 587 -315 550 9
-5 67 -54 127 -109 115 -103 284 -286 426 -457 73 -89 340 -442 429 -567 18
-27 37 -48 41 -48 4 0 19 25 33 55 56 122 125 198 342 370 288 229 307 257
454 671 142 398 185 503 290 719 105 214 217 388 325 505 107 116 168 201 320
443 195 313 280 419 430 539 98 78 216 197 260 263 51 78 75 151 75 231 0 61
-4 74 -46 148 -167 291 -400 474 -676 530 -97 20 -283 28 -372 15z"/>
</g>
</svg>
